<?xml version='1.0' encoding='utf-8'?>
<svg xmlns="http://www.w3.org/2000/svg" enable-background="new 0 0 128 128" version="1.1" viewBox="0 0 128 128"> <path d="M123,73V55h-14.08c-1.21-6.03-3.68-11.63-7-16.54l10.23-10.23L99.77,15.85L89.54,26.08 c-4.91-3.32-10.51-5.7-16.54-6.91V5H55v14.08c-6.03,1.21-11.63,3.68-16.54,7L28.23,15.85L15.85,28.23l10.09,10.09 c-3.32,4.92-5.69,10.64-6.88,16.68H5v18l14.16,0.02c1.22,5.97,3.61,11.59,6.91,16.35l-10.22,10.4l12.38,12.38l10.23-10.23 c4.91,3.32,10.51,5.7,16.54,6.91V123h18l0.06-14.11c6.03-1.21,11.63-3.67,16.54-6.99l10.2,10.24l12.36-12.38l-10.23-10.22 c3.32-4.91,5.69-10.51,6.9-16.54H123z M64,85.08c-11.64,0-21.08-9.44-21.08-21.08S52.36,42.92,64,42.92S85.08,52.36,85.08,64 S75.64,85.08,64,85.08z" fill="#AFAFAF"/> <path d="m73 126h-18c-1.657 0-3-1.343-3-3v-11.775c-4.644-1.175-9.041-3.011-13.124-5.479l-8.525 8.524c-1.125 1.126-3.118 1.125-4.242 0l-12.38-12.38c-1.165-1.164-1.173-3.049-0.019-4.224l8.53-8.681c-2.419-3.951-4.278-8.362-5.466-12.97l-11.778-0.015c-1.656-2e-3 -2.996-1.345-2.996-3v-18c0-1.657 1.343-3 3-3h11.657c1.172-4.685 3.029-9.195 5.461-13.259l-8.39-8.39c-1.172-1.171-1.172-3.071 0-4.242l12.38-12.38c1.125-1.125 3.117-1.126 4.242 0l8.522 8.522c4.152-2.526 8.551-4.39 13.126-5.562v-11.689c0-1.657 1.343-3 3-3h18c1.657 0 3 1.343 3 3v11.775c4.644 1.175 9.041 3.011 13.124 5.479l8.525-8.524c1.125-1.126 3.118-1.125 4.242 0l12.38 12.38c0.563 0.563 0.879 1.325 0.879 2.121 0 0.795-0.316 1.559-0.879 2.121l-8.522 8.522c2.526 4.152 4.39 8.551 5.562 13.126h11.691c1.657 0 3 1.343 3 3v18c0 1.657-1.343 3-3 3h-11.774c-1.176 4.65-3.008 9.047-5.469 13.123l8.523 8.515c1.172 1.171 1.173 3.07 3e-3 4.242l-12.36 12.38c-0.563 0.563-1.327 0.88-2.123 0.88h-2e-3c-0.797 0-1.561-0.318-2.124-0.883l-8.492-8.526c-4.147 2.521-8.547 4.381-13.132 5.553l-0.05 11.729c-7e-3 1.652-1.348 2.987-3 2.987zm-15-6h12.013l0.047-11.123c6e-3 -1.425 1.013-2.648 2.41-2.929 5.46-1.096 10.659-3.294 15.45-6.534 1.193-0.806 2.79-0.652 3.806 0.368l8.077 8.109 8.116-8.129-8.108-8.1c-1.018-1.017-1.17-2.612-0.365-3.803 3.155-4.667 5.323-9.865 6.444-15.45 0.281-1.401 1.512-2.41 2.941-2.41h11.169v-11.999h-11.08c-1.429 0-2.66-1.008-2.941-2.41-1.093-5.447-3.294-10.645-6.544-15.45-0.805-1.191-0.652-2.786 0.364-3.802l8.108-8.109-8.137-8.137-8.109 8.108c-1.016 1.016-2.611 1.169-3.802 0.364-4.679-3.165-9.877-5.336-15.45-6.454-1.401-0.28-2.409-1.511-2.409-2.94v-11.17h-12v11.08c0 1.429-1.008 2.66-2.41 2.941-5.447 1.093-10.645 3.294-15.45 6.544-1.191 0.805-2.787 0.652-3.802-0.364l-8.109-8.108-8.137 8.137 7.968 7.969c1.016 1.016 1.169 2.608 0.366 3.799-3.099 4.593-5.32 9.981-6.423 15.583-0.276 1.405-1.51 2.419-2.943 2.419h-11.06v12.004l11.165 0.016c1.424 2e-3 2.65 1.004 2.935 2.399 1.129 5.526 3.354 10.796 6.436 15.242 0.821 1.184 0.684 2.784-0.326 3.812l-8.135 8.279 8.156 8.156 8.109-8.108c1.015-1.017 2.609-1.17 3.802-0.364 4.679 3.165 9.877 5.336 15.45 6.454 1.401 0.281 2.41 1.512 2.41 2.941v11.169zm6-31.92c-13.278 0-24.08-10.802-24.08-24.08s10.802-24.08 24.08-24.08 24.08 10.802 24.08 24.08-10.802 24.08-24.08 24.08zm0-42.16c-9.969 0-18.08 8.111-18.08 18.08s8.111 18.08 18.08 18.08 18.08-8.111 18.08-18.08-8.111-18.08-18.08-18.08z" fill="#231F20"/> </svg>